<?xml version="1.0" encoding="UTF-8" standalone="no"?>
<svg
   xmlns:dc="http://purl.org/dc/elements/1.1/"
   xmlns:cc="http://creativecommons.org/ns#"
   xmlns:rdf="http://www.w3.org/1999/02/22-rdf-syntax-ns#"
   xmlns:svg="http://www.w3.org/2000/svg"
   xmlns="http://www.w3.org/2000/svg"
   id="svg3624"
   version="1.1"
   viewBox="0 0 2476.4766 2105.5817"
   height="2105.5818pt"
   width="2476.4766pt">
  <metadata
     id="metadata3690">
    <rdf:RDF>
      <cc:Work
         rdf:about="">
        <dc:format>image/svg+xml</dc:format>
        <dc:type
           rdf:resource="http://purl.org/dc/dcmitype/StillImage" />
        <dc:title></dc:title>
      </cc:Work>
    </rdf:RDF>
  </metadata>
  <defs
     id="defs3626">
    <clipPath
       id="clip1">
      <path
         id="path3629"
         d="m 0,0 2476.4688,0 0,2105.5781 -2476.4688,0 z m 0,0" />
    </clipPath>
  </defs>
  <g
     transform="translate(0,3.1002502)"
     style="display:inline"
     id="layer5">
    <path
       id="path3634"
       d="m 0,2102.4817 2476.4766,0 0,-2105.5820479 -2476.4766,0 z m 0,0"
       style="clip-rule:nonzero;fill:#1c234c;fill-opacity:1;fill-rule:nonzero;stroke:none" />
  </g>
  <g
     transform="translate(0,3.1002502)"
     style="display:inline"
     id="layer3">
    <g
       style="display:inline"
       id="layer6">
      <path
         style="display:inline;fill:#fff000;fill-opacity:1;fill-rule:nonzero;stroke:none"
         d="m 2278.4844,870.96997 -238.9375,234.80473 174.0664,286.2383 -333.4414,47.7695 -14.3672,339.0508 -309.8359,-125.4609 -151.1993,296.7304 L 1154.7227,1709.802 879.94141,1915.7513 757.29687,1593.302 421.23828,1655.2044 477.3125,1322.763 164.71875,1200.8333 403.65625,966.03637 229.57812,679.79809 563.01953,632.02465 577.36328,292.9895 887.25,418.44262 l 151.1289,-296.75 250.0899,240.30469 274.8007,-205.92578 122.6016,322.47265 336.1172,-61.94921 -56.0899,332.47265 312.586,121.90235"
         id="path3636" />
    </g>
    <g
       style="display:inline"
       id="layer7">
      <path
         style="display:inline;fill:none;stroke:#211e1e;stroke-width:5.99999714;stroke-linecap:butt;stroke-linejoin:miter;stroke-miterlimit:4;stroke-opacity:1"
         d="m 2278.4844,870.97001 -238.9375,234.80469 174.0664,286.2383 -333.4413,47.7695 -14.3673,339.0508 -309.836,-125.4609 -151.1992,296.7304 L 1154.7226,1709.802 879.94141,1915.7513 757.29687,1593.302 421.23828,1655.2044 477.31249,1322.763 164.71875,1200.8333 403.65625,966.03642 229.57812,679.79813 563.01954,632.0247 l 14.34374,-339.03514 309.88671,125.4531 151.12891,-296.75007 250.0899,240.30481 274.8007,-205.92584 122.6016,322.47267 336.1171,-61.94922 -56.0898,332.47265 z m 0,0"
         id="path3638" />
    </g>
  </g>
  <g
     transform="translate(0,3.1002502)"
     style="display:inline"
     id="layer4">
    <path
       style="fill:#211e1e;fill-opacity:1;fill-rule:nonzero;stroke:none"
       d="m 1424.0313,460.74731 c 1.3281,0 2.7187,0 4.1289,0 14.4687,14.78125 23.4296,61.91797 17.9609,93.89844 -2.25,12.89062 -8.332,30.25781 -5.5508,42.83984 5.0781,0.96094 10.1485,1.89844 15.1914,2.81641 0.4766,3.67187 0.918,7.33593 1.3789,11.03515 -29.9883,21.75 -80.3593,47.91797 -99.4804,80.08594 -29.0313,48.97266 -14.5586,141.28125 30.4375,160.24609 32.6914,13.8125 161.0507,-7.24218 197.5234,-13.79296 28.5312,-0.90235 57.1094,-1.84375 85.6719,-2.76954 202.7343,-0.0547 201.7226,42.40235 237.1797,214.54692 8.5429,41.1406 3.3945,84.6211 -18.7422,128.0781 -9.2032,8.3125 -12.6797,54.2813 -21.8672,62.4922 -13.8281,11.5703 -17.457,41.6289 -31.2539,53.1211 -35.5078,22.3594 -63.1328,-11.3711 -112.4531,-3.1328 -42.3477,-1.4102 -85.7266,-1.7188 -128.0977,-3.1289 -50.207,8.6211 -114.2773,-2.3477 -168.707,6.2617 -108.9493,17.1875 -222.6016,16.2774 -319.711,-0.9805 -31.7695,-0.4414 -63.5312,-0.9023 -95.3203,-1.4023 -18.85936,-1.7773 -37.72655,-3.6992 -56.62499,-5.4766 -14.76953,1.7774 -29.46484,3.6993 -44.21484,5.4766 -153.78906,0.1914 -322.11719,43.6914 -388.17578,-67.6289 -20.83203,-35.1289 -34.81641,-101.2188 -24.87891,-160.2813 18.0625,-107.77735 0.26953,-199.17188 109.14063,-220.9961 53.41796,-10.78515 106.07421,9.92969 165.76171,0 35.44532,-5.9375 88.01954,-14.27343 131.26563,-6.94922 55.81641,9.49219 113.94535,25.11329 171.27735,13.84766 25.3398,-5.00391 44.3398,7.10156 60.7578,10.99219 59.3203,14.1875 109.5313,-22.94922 116.0313,-64.8711 -2.2891,-2.32421 -4.5782,-4.60546 -6.8711,-6.94921 -59.7696,4.40625 -112.3594,-12.15625 -135.4102,-55.21875 26.6211,-10.15625 58.8633,-30.30469 96.7305,-16.57813 18.0429,6.51172 46.0429,38.90625 64.9297,31.75781 13.5898,-36.40234 36.2929,-160.04687 84.2695,-150.60156 2.3008,1.89844 4.6211,3.70313 6.9023,5.57031 -1.8281,9.625 -3.6914,19.29297 -5.5507,28.98828 4.1484,0.94532 8.3203,1.85938 12.4609,2.78125 9.6797,-7.68359 18.7891,-14.03125 27.6094,-22.14453 -1.3399,-33.30078 -27.4024,-57.01953 -22.1328,-88.41015 4.5312,-26.64453 32.7343,-46.41797 48.4336,-63.52344"
       id="path3640" />
    <path
       style="fill:none;stroke:#211e1e;stroke-width:1.0000006;stroke-linecap:butt;stroke-linejoin:miter;stroke-miterlimit:4;stroke-opacity:1"
       d="m 1424.0312,460.74735 c 1.3282,0 2.7188,0 4.1289,0 14.4688,14.78125 23.4297,61.91798 17.961,93.89844 -2.25,12.89062 -8.332,30.2578 -5.5508,42.83985 5.0781,0.96093 10.1484,1.89842 15.1914,2.8164 0.4766,3.67187 0.918,7.33594 1.3789,11.03515 -29.9883,21.75 -80.3593,47.91798 -99.4805,80.08594 -29.0312,48.97265 -14.5585,141.28125 30.4376,160.2461 32.6914,13.8125 161.0507,-7.24219 197.5234,-13.79297 28.5313,-0.90234 57.1094,-1.84375 85.6719,-2.76953 202.7344,-0.0547 201.7227,42.40234 237.1797,214.54687 8.5429,41.1406 3.3946,84.6211 -18.7423,128.0781 -9.203,8.3125 -12.6796,54.2813 -21.8671,62.4922 -13.8282,11.5703 -17.4571,41.6289 -31.254,53.1211 -35.5077,22.3594 -63.1327,-11.3711 -112.4531,-3.1328 -42.3476,-1.4102 -85.7265,-1.7188 -128.0976,-3.1289 -50.207,8.6211 -114.2774,-2.3477 -168.707,6.2617 -108.9493,17.1875 -222.6016,16.2774 -319.711,-0.9805 -31.7695,-0.4414 -63.5312,-0.9023 -95.3203,-1.4023 -18.85936,-1.7774 -37.72655,-3.6992 -56.62498,-5.4766 -14.76954,1.7774 -29.46486,3.6992 -44.21485,5.4766 -153.78907,0.1914 -322.11718,43.6914 -388.17579,-67.6289 -20.83203,-35.1289 -34.81639,-101.2188 -24.87889,-160.2813 18.0625,-107.77731 0.26953,-199.17183 109.14061,-220.99606 53.41797,-10.78515 106.07423,9.9297 165.76173,0 35.44531,-5.93749 88.01953,-14.27343 131.26563,-6.94921 55.8164,9.49218 113.94534,25.11327 171.27734,13.84765 25.3398,-5.0039 44.3398,7.10156 60.7578,10.99219 59.3203,14.1875 109.5313,-22.94922 116.0313,-64.8711 -2.2891,-2.32421 -4.5782,-4.60547 -6.8711,-6.94921 -59.7696,4.40624 -112.3594,-12.15625 -135.4102,-55.21875 26.6211,-10.15626 58.8633,-30.30469 96.7305,-16.57812 18.0429,6.51171 46.0429,38.90624 64.9297,31.75781 13.5898,-36.40235 36.2929,-160.04688 84.2695,-150.60156 2.3008,1.89842 4.6211,3.70312 6.9023,5.57031 -1.8281,9.625 -3.6914,19.29296 -5.5508,28.98828 4.1485,0.94531 8.3204,1.85937 12.461,2.78125 9.6797,-7.6836 18.789,-14.03125 27.6094,-22.14453 -1.3399,-33.30078 -27.4024,-57.01953 -22.1329,-88.41017 4.5313,-26.64452 32.7344,-46.41797 48.4336,-63.52343 z m 0,0"
       id="path3642" />
    <path
       style="fill:#bd4f21;fill-opacity:1;fill-rule:nonzero;stroke:none"
       d="m 1337.7188,655.00122 c 0.8906,4.0664 4.7617,5.13671 8.4296,4.89062 2.8125,-4.69922 4.711,-0.77344 8.3008,-3.76172 -1.6094,5.80078 9.2617,12.91016 -1.0664,16.4375 0.4961,7.66406 -6.0625,13.25 -9.0117,19.89453 -4.3828,16.08594 -10.3711,29.01172 -16.6328,44.16407 3.5742,3.70703 -2.207,5.44921 -1.9961,9.3789 -1.5117,8.46485 -1.2813,18.4336 -5.6524,25.58203 0.918,16.32032 -0.2578,33.39453 1.6524,49.42969 -2.6797,7.03516 6.0664,8.91406 3.2891,16.29688 3.8867,1 1.7382,5.42968 3.0898,8.27734 1.5586,4.12109 1.7383,8.75781 3.2695,12.85937 4.8907,6.45313 4.8399,16.46094 10.1914,22.58594 5.5899,12.51563 11.9571,24.75 19.25,36.84375 7.8008,4.40625 13.8477,-2.85547 21.6797,-1.70703 7.9297,-6.48047 20.0391,-1.89453 26.668,-11.40234 -6.8711,-3.70703 -13.7305,-7.75391 -20.2305,-11.75391 -2.1992,-7.55469 -17.1992,-12.69922 -11.289,-21.74609 -3.0977,-1.95703 -6.9102,-3.36328 -6.4102,-7.97266 -0.2695,-0.95312 1.0898,-1.13672 1.8711,-2.08203 9.9883,2.39062 25.3008,1.42187 35.1094,6.01953 23.1484,-9.41797 46.2187,3.97656 68.3515,7.28125 9.668,5.27734 19.4493,0.71484 28.9375,4.72266 7.3516,-3.82032 15.4414,4.20312 22.2422,-0.64063 6.3867,2.01953 12.1094,-2.04687 18.6406,1.96094 12.2969,-3.30469 25.6797,-4.85156 37.336,-5.64844 12.0898,-2 24.164,-0.39453 36.7812,-4.02344 5.0782,-4.05468 12.5703,-2.9375 17.3711,-4.4375 2.3282,2.84375 4.461,-1.83203 7.0586,-0.96875 4.5117,0.86329 8.3125,-0.42578 11.5,-2.6914 5.711,-0.75 12.6211,2.65234 16.7735,-2.21485 8.5078,0.88672 17.2343,-3.47656 23.9531,-0.73437 40.2695,-5.98438 73.1953,8.06641 107.875,24.30078 18.5937,11.94922 38.957,25.95313 51.7695,42.54688 12.0742,16.85937 10.9102,37.55468 18.9297,55.21484 1.4336,8.09375 2.9023,16.2187 4.3906,24.28914 3.543,10.3515 2.2969,18.8203 3.1211,29.8515 l 2.3633,2.5196 c -0.031,16.2187 1.7734,33.5976 -2.125,48.4101 0.7773,26.9102 -7.6172,50.1719 -10.0625,79 -2.7187,10.2891 -7.6328,19.4219 -11.6367,28.8985 -6.0938,19.8515 -15.3789,39.0234 -21.375,58.2109 -4.1211,10.918 -14.6367,16.3516 -15.6524,29.1601 -5.707,4.0508 -12.5429,-0.332 -19.9921,1.2188 -9.0157,1.0391 -16.2579,-5.7266 -25.4766,-6.0273 -2.8399,-1.2813 -8.7461,-1.6094 -11.3828,-5.1602 -27.1172,-9.1836 -55.7188,-8.1836 -82.3828,-3.082 -18.0196,-1.9493 -35.9493,-4.1485 -55.9375,-2.6407 -14.461,-4.1796 -32.6719,-1.1679 -47.1993,-4.3203 -2.3515,3.3828 -4.914,-0.539 -7.1914,-0.7773 -15.7187,1.3476 -35.039,-3.3594 -50.6718,0.2383 -40.4375,-1.961 -78.5899,4.9297 -118.3282,5.6992 -5.1718,1.7305 -11.0312,0.832 -16.7304,1.4922 -13.961,0.5508 -27.4414,2.7578 -40.8086,4.3008 -6.8711,-0.7618 -14.7305,1.7187 -22.25,0.9296 -12.8438,-0.6015 -25.4805,2.6289 -39.1094,0.5664 -11.5234,-0.6289 -21.8516,3.254 -31.6523,-1.0781 -6.4102,3.961 -13.2188,-3.4414 -19.1407,-0.4179 -2.2382,-6.8204 -6.4882,1.957 -9.957,-2.7032 -19.4727,-0.7187 -41.4023,-3.0156 -59.543,-6.2695 -34.0898,-3.2578 -72.0898,-6.6484 -106.4414,-7.3281 l -1.8203,1.4375 c -26.0976,-3.3907 -57.6172,0.8515 -83.98827,-0.2266 -13.85547,2.8594 -25.69531,1.8789 -39.55078,4.7695 -6.05859,1.3008 -11.47266,-0.9609 -17.50781,-0.25 -14.89453,6.6485 -32.98828,2.4688 -48.88672,5.7891 -11.875,-3.6406 -24.6875,1.9609 -37.98438,-0.7617 -4.08984,4.2109 -8.5664,-0.25 -12.10547,1.7226 -19.20703,0.2579 -35.16796,1.1914 -54.38671,1.5 -1.99219,3.0586 -6.5,-1.0625 -8.89454,2.3204 -28.09765,3.3281 -59.21875,0.3281 -86.86718,2.6992 -15.48047,-3.9219 -33.05469,5.1679 -47.72266,-6.0196 -5.93359,2.7188 -11.59375,-2.8711 -17.97656,-1.8984 11.2539,-9.332 19.51172,-22.043 25.88281,-35.2734 9.32031,2.5507 4.77344,-7.4375 6.80859,-11.2071 0,-9.2929 12.75,-14.2031 10.28516,-22.1132 4.4375,-11.0899 1.48828,-20.3399 7.24219,-30.9883 -6.5,-16.5586 9.71484,-32.3594 4.13672,-48.461 6.78515,-4.6211 -0.57032,-13.3086 5.59765,-15.3281 0.8086,-1.5625 2.59375,-2.3828 2.16407,-4.7305 -6.13282,-1.6601 -0.59375,-7.0117 -2.79297,-11.2031 4.01172,-3.25 -2.69922,-8.9375 1.25781,-11.7383 -3.35156,-12.0586 2.85937,-27.2109 -3.85156,-38.8398 2.78906,-13.2695 -4.96875,-21.6992 -4.89844,-34.6289 8.44922,-4.70314 -6.54688,-7.23834 -1.78516,-14.4024 -2.70312,-5.60547 -5.10156,-11.42578 -5.03125,-18.03516 -6.62109,-3.42578 -1.5625,-10.44922 -7.45703,-14.38281 l 1.26563,-2.19922 c -5.09766,-5.16016 -3.6211,-12.55469 -9.39453,-17.55469 l 1.96484,-3.01953 c -11.70703,-10.84766 -18.76172,-25.83203 -32.95703,-35.28516 1.67969,-13.02343 17.28125,-10.39062 25.61328,-17.1289 15.16016,-14.91797 37.83594,-13.53906 56.05859,-16.90235 13.82813,0.78907 28.65625,-1.90625 43.75391,-0.97656 5.42578,-1.0664 13.40234,1.41016 19.00391,-1.26172 3.77734,1.72266 6.57421,0.33203 10.11718,1.03907 5.90235,0.60156 14.06641,-1.52735 20.72657,1.5 1.57812,-2.84375 2.98046,0 4.55078,0.48828 7.5,-1.83203 15.75,-1.91016 22.28515,-0.94532 4.73828,-1.10546 10.7461,4.84375 15.21094,-0.0195 10.50781,3.73828 20.14844,0.47657 29.67188,4.14453 9.70312,-0.9414 18.98828,-1.32812 27.41015,3.58204 13.38672,1.71875 27.23438,-1.125 40.14844,5.20312 4.41797,-1.52344 7.94141,-0.10547 12.44922,1.30078 31.32812,0.67969 62.875,15.25781 93.50778,9.92188 9.3594,2.64843 17.3789,-1.08985 26.0391,1.13281 4.5898,3.4375 10.5273,-2.54297 16.2187,-3.24609 8.0782,1.83593 15.2188,-6.36329 22.3516,-1.59766 19.8711,-0.22656 37.4297,-12.62109 57.2578,-9.79688 2.4024,-7.0625 9.25,0.29688 9.7305,-7.6289 15.1914,9.87109 34.25,1.62109 51.8789,3.82812 1.1797,-1.84375 3.082,-1.00781 5.0937,-1.07812 -7.7031,13.08984 -21.6718,17.21484 -33.0429,24.29297 -9.4492,8.1875 -22.5703,4.19922 -32.0703,12.42187 -7.4883,2.22266 -16.2696,0.6836 -22.0977,5.6836 -3.2734,-0.37891 -8.4492,1.74609 -11.9531,0.3789 -0.4883,1.57813 -0.2891,2.91016 1.2539,4.07031 11.1172,-2.125 22.8594,-6.80859 34.0781,-6.60546 9.582,0.2539 17.5,-5.75391 26.8789,-6.75391 9.2227,-5.98047 19.6211,-7.53125 29.1328,-12.8125 20.1485,-12.08594 31.7774,-31.69141 44.9297,-49.18359 -1.5898,-10.07813 13.8477,-12.0586 9.3203,-22.78907 3.4688,-7.60156 9.4063,-13.91797 10.3282,-22.74218 6.5898,0.35546 5.0781,-10.03516 9.5898,-15.5625 0.8711,-4.5625 3.7109,-9.82422 5.5586,-14.63282 5.2812,-3.05859 -2.1875,-7.52734 2.8125,-10.94922 1.2695,-8.76562 7.2305,-15.43359 7.6406,-25.26953 7.1172,-7.90234 2.0391,-19.33203 10.7774,-26.66406 -2.6485,-2.91797 2.8906,-5.34375 -0.8594,-8.04687 6.3594,-3.36329 1.8086,-13.67188 9.8008,-17.15235 -2.75,-5.25 6.1601,-5.01172 4.0312,-9.79687 7.7696,-7.8086 11.1797,-21.32032 22.5196,-25.46485 5.5273,4.23828 -1.8125,7.74219 -1.3125,12.44532"
       id="path3644" />
    <path
       style="fill:#211e1e;fill-opacity:1;fill-rule:nonzero;stroke:none"
       d="m 1786.9023,890.23168 c -14.0156,7.35938 -19.8554,24.98047 -38.5312,20.36329 -6.332,-3.02344 -11.2969,3.05468 -17.5938,0.41796 -17.121,2.17969 -35.5937,4.82422 -53.8554,5.54297 -15.711,-2.0039 -32.1328,3.24219 -47.8008,1.22266 -47.5195,-1.01563 -91.1719,1.94531 -138.6914,-8.42969 -8.5899,-3.18359 -17.9297,0.44141 -24.3008,-4.86719 16.3516,1.76172 40.5234,7.92969 60.5391,6.41016 1.6718,-3.44531 3.6133,0.44141 5.5312,0.64063 25.9805,4.38281 48.3321,-0.51954 74.4024,0.58593 17.4179,-5.10937 34.2382,-2.00781 52.0781,-4.78906 15.9922,-0.625 33.5469,-1.02734 48.4414,-7.42969 1.8047,1.51953 3.75,2.08594 6.3828,2.34375 4.4219,-4.20312 11.5469,0.21875 16.6641,-1.54687 18.6093,-3.65625 38.6679,-2.83203 56.1758,-11.58203 l 0.5585,1.11718"
       id="path3646" />
    <path
       style="fill:none;stroke:#211e1e;stroke-width:1.0000006;stroke-linecap:butt;stroke-linejoin:miter;stroke-miterlimit:4;stroke-opacity:1"
       d="m 1786.9023,890.23172 c -14.0155,7.35937 -19.8555,24.98047 -38.5312,20.36329 -6.332,-3.02345 -11.2968,3.05468 -17.5938,0.41796 -17.1211,2.1797 -35.5937,4.82423 -53.8554,5.54298 -15.711,-2.00391 -32.1328,3.24218 -47.8008,1.22264 -47.5195,-1.01562 -91.1719,1.94532 -138.6914,-8.42968 -8.5899,-3.1836 -17.9297,0.4414 -24.3008,-4.86718 16.3516,1.76171 40.5235,7.92968 60.5391,6.41015 1.6718,-3.44531 3.6132,0.44141 5.5312,0.64062 25.9805,4.38282 48.3321,-0.51953 74.4024,0.58594 17.4179,-5.10938 34.2382,-2.00781 52.0781,-4.78906 15.9922,-0.625 33.5469,-1.02735 48.4415,-7.42968 1.8046,1.51953 3.7499,2.08593 6.3827,2.34375 4.4218,-4.20314 11.5469,0.21874 16.664,-1.54689 18.6094,-3.65625 38.668,-2.83202 56.1759,-11.58202 z m 0,0"
       id="path3648" />
    <path
       style="fill:#211e1e;fill-opacity:1;fill-rule:nonzero;stroke:none"
       d="m 1786.3594,963.92309 c 6.4336,1.64844 19.3164,-1.30078 19.4531,9.97656 l -0.3555,9.52344 c -4.2187,-3.73828 -10.4843,-0.80078 -15.8359,-0.32031 -7.8867,-6.80469 -16.2773,3.84765 -24.1445,-3.21875 -36.9805,-3.625 -73.5196,-2.54297 -111.3868,-3.90235 -2.8789,2.07813 -7.9492,-2.80078 -9.25,3.04297 -2.539,-4.27343 -8.6992,-2.58984 -13.1875,-3.76562 -2.4023,1.0625 -6.9609,0.30078 -9.4101,1.33594 -22.6524,-1.44141 -47.5938,-0.3711 -71.0117,-4.17969 -4.8477,2.14453 -9.6485,0.60156 -13.4805,-0.78125 -7.8906,2.8164 -17.1797,-3.50391 -25.3984,-0.38281 -5.75,1.07031 -11.2227,5.40625 -16.9102,3.18359 -8.6133,3.08594 -18.1836,2.70703 -27.1016,5.6875 -1.1796,5.20703 -8.0898,-1.52344 -9.0781,4.74609 -9.0703,-1.66406 -18.6914,1.58203 -28.0508,2.56641 -7.7734,4.84375 -17.7812,8.13281 -23.7226,14.74999 -5.5195,-4.22264 -10.8399,5.4571 -17.0664,4.8165 -10.1914,8.832 -21.9922,7.8828 -31.2696,17.1718 -5.9921,-2.6601 -8.2929,6.7618 -14.0507,4.8008 -4.7696,4.4414 -10.8008,5.1289 -16.0899,7.8711 -1.9414,-3.1797 -4.5039,-4.0508 -3.0703,-8.2617 17.7774,-8.6797 37.4102,-15.9219 56.6484,-22.4688 0.3321,-6.23044 9.5313,0.3789 7,-6.51174 7.9024,0.1406 16.8594,-3.52342 24.5704,-7.67576 6.3984,-1.29297 12.6523,-3.5625 18.9296,-6.88672 11.6485,-3.74219 24.461,-2.73828 35.6016,-8.14453 5.7109,2.58593 9.6289,-3.6211 14.6484,-0.77735 7.0899,-0.90234 14.4297,-4.73047 20.9493,-4.03906 2.1601,-1.44531 4.9101,-2.80469 7.3711,-0.87109 6.6406,-3.64453 12.25,-3.33594 18.8398,0.28515 9.8789,-2.85937 22.7617,0.44141 31.8711,-1.23828 16.8398,0.50781 36.0195,0.55469 53.8164,1.05469 28.7617,-2.85938 58.6836,-4.33594 86.7305,-6.6875 23.6211,-1.07031 44.4883,-1.21875 68.789,0 2.1914,-1.71484 4.5391,-2.17188 7.4258,-1.51172 1.082,2.46094 5.336,2.90234 7.2266,0.8125"
       id="path3650" />
    <path
       style="fill:none;stroke:#211e1e;stroke-width:1.0000006;stroke-linecap:butt;stroke-linejoin:miter;stroke-miterlimit:4;stroke-opacity:1"
       d="m 1786.3593,963.92313 c 6.4336,1.64843 19.3164,-1.30079 19.4532,9.97657 l -0.3554,9.52343 c -4.2189,-3.73827 -10.4845,-0.80077 -15.836,-0.32032 -7.8867,-6.80467 -16.2774,3.84766 -24.1446,-3.21875 -36.9804,-3.62499 -73.5194,-2.54297 -111.3867,-3.90233 -2.8789,2.07812 -7.9492,-2.80078 -9.25,3.04296 -2.539,-4.27344 -8.6992,-2.58984 -13.1875,-3.76563 -2.4023,1.06251 -6.9609,0.30079 -9.4101,1.33595 -22.6523,-1.44141 -47.5938,-0.3711 -71.0117,-4.17969 -4.8477,2.14453 -9.6485,0.60156 -13.4805,-0.78125 -7.8906,2.8164 -17.1797,-3.5039 -25.3984,-0.38282 -5.75,1.07031 -11.2227,5.40626 -16.9102,3.1836 -8.6133,3.08593 -18.1836,2.70704 -27.1016,5.68751 -1.1796,5.20702 -8.0898,-1.52345 -9.0781,4.74608 -9.0703,-1.66407 -18.6914,1.58204 -28.0508,2.5664 -7.7734,4.84376 -17.7812,8.13282 -23.7226,14.74996 -5.5195,-4.2226 -10.8399,5.4571 -17.0664,4.8165 -10.1914,8.832 -21.9922,7.8828 -31.2696,17.1718 -5.9921,-2.6601 -8.2929,6.7618 -14.0507,4.8008 -4.7696,4.4414 -10.8008,5.1289 -16.0899,7.8711 -1.9414,-3.1797 -4.5039,-4.0508 -3.0703,-8.2617 17.7774,-8.6797 37.4102,-15.9219 56.6484,-22.4688 0.3321,-6.23043 9.5313,0.3789 7,-6.51168 7.9024,0.14062 16.8594,-3.52343 24.5704,-7.67577 6.3984,-1.29298 12.6523,-3.56251 18.9296,-6.88672 11.6485,-3.7422 24.461,-2.7383 35.6016,-8.14454 5.7109,2.58594 9.6289,-3.6211 14.6484,-0.77734 7.0899,-0.90234 14.4297,-4.73048 20.9493,-4.03907 2.1601,-1.44532 4.9101,-2.80468 7.3711,-0.8711 6.6406,-3.64452 12.25,-3.33593 18.8398,0.28517 9.8789,-2.85937 22.7617,0.4414 31.8711,-1.23828 16.8398,0.50781 36.0195,0.55468 53.8164,1.05467 28.7617,-2.85937 58.6836,-4.33593 86.7305,-6.68749 23.621,-1.07031 44.4883,-1.21875 68.789,0 2.1915,-1.71484 4.5392,-2.17188 7.4258,-1.51172 1.082,2.46093 5.3359,2.90235 7.2265,0.8125 z m 0,0"
       id="path3652" />
    <path
       style="fill:#211e1e;fill-opacity:1;fill-rule:nonzero;stroke:none"
       d="m 1081.0781,904.10668 c -13.8867,0.19141 -26.2265,10.41016 -40.4258,6.94922 -1.1835,1.81641 -3.1132,1.29297 -4.7617,1.15625 -1.1406,-1.5 -3.1718,-4.30078 -4.4492,-1.5 l -3.1797,4.67969 c -8.5625,-6.22266 -19.6406,-4.78125 -29.82811,-2.55469 l -1.46875,-1.74218 c -12.88672,-0.082 -25.58593,1.20312 -38.67968,-0.14454 -6.64454,3.23047 -12.05079,1.34766 -19.39844,1.88672 -5.28125,-0.20703 -8.88281,2.66016 -13.40235,-1.48828 -16.02734,1 -31.9414,1.60547 -47.91015,2.23828 -5.51953,-0.91406 -9.15625,-3.9375 -14.54688,-3.13672 -3.13281,4.94141 -7.48047,-0.85937 -10.3125,0.54688 -5.125,1.41406 -10.42578,1.875 -15.03125,-1.60156 -7.39062,1.19922 -15.67578,4.63672 -23.14062,-0.10157 -13.94922,0.80079 -28.66797,-1.0625 -42.19141,1.76172 -5.39844,-5.16797 -10.09765,4.89844 -14.73047,-1.57031 -4.60937,-0.17187 -10.45703,1.86328 -13.51953,-0.41406 -9.71094,-2.02344 -17.88672,3.46094 -27.05859,-0.52344 11.46875,-5.72266 26.78125,-0.21875 38.26953,-2.24609 21.97266,1.94531 44.46484,-4.22266 66.1875,-0.27735 6.875,-2.26562 15.35547,1.63672 21.53516,-3.36328 7.27734,3.07813 18.57812,-0.67578 26.16406,2.76563 7.58594,-5.8086 18.64844,-0.98047 27.19531,-3.41016 6.71094,2.39063 14.32422,-1.11719 20.82031,-0.0898 12.94141,-3.26563 24.60157,2.29297 38.29688,-2.20703 3.875,1.02343 7.55859,3.49218 10.92187,-0.50391 14.69922,2.20312 28.86328,-0.58984 41.49611,-1.24219 3.1719,4.58594 6.8594,-1.92187 11.3125,-0.42969 15.2305,0.27344 28.75,3.71875 42.6875,-0.0625 4.9023,6.73829 11.5586,0.16016 17.043,-1.54296 2.8164,1.60546 4.7265,5.41796 2.1054,8.16796"
       id="path3654" />
    <path
       style="fill:none;stroke:#211e1e;stroke-width:1.0000006;stroke-linecap:butt;stroke-linejoin:miter;stroke-miterlimit:4;stroke-opacity:1"
       d="m 1081.0781,904.10672 c -13.8867,0.1914 -26.2265,10.41017 -40.4257,6.94922 -1.1837,1.8164 -3.1133,1.29298 -4.7618,1.15626 -1.1406,-1.50001 -3.1718,-4.3008 -4.4492,-1.50001 l -3.1797,4.67969 c -8.5625,-6.22266 -19.6406,-4.78125 -29.8281,-2.55469 l -1.46876,-1.74219 c -12.88672,-0.082 -25.58593,1.20313 -38.67968,-0.14452 -6.64453,3.23047 -12.05079,1.34765 -19.39844,1.88671 -5.28125,-0.20702 -8.88281,2.66017 -13.40235,-1.48828 -16.02734,1.00001 -31.9414,1.60548 -47.91014,2.23829 -5.51954,-0.91406 -9.15626,-3.93751 -14.54688,-3.13673 -3.13283,4.94141 -7.48048,-0.85937 -10.31251,0.54688 -5.125,1.41406 -10.42578,1.87499 -15.03124,-1.60157 -7.39063,1.19923 -15.67578,4.63672 -23.14064,-0.10156 -13.94921,0.80079 -28.66796,-1.06249 -42.1914,1.76172 -5.39844,-5.16796 -10.09765,4.89844 -14.73047,-1.57032 -4.60938,-0.17187 -10.45702,1.86329 -13.51952,-0.41404 -9.71094,-2.02345 -17.88673,3.46092 -27.0586,-0.52345 11.46875,-5.72265 26.78125,-0.21874 38.26953,-2.2461 21.97265,1.94531 44.46484,-4.22265 66.18751,-0.27733 6.875,-2.26564 15.35546,1.63671 21.53514,-3.36329 7.27735,3.07814 18.57813,-0.67578 26.16406,2.76563 7.58594,-5.80859 18.64845,-0.98046 27.19532,-3.41015 6.71093,2.39061 14.32422,-1.1172 20.82031,-0.0898 12.9414,-3.26562 24.60156,2.29296 38.29689,-2.20703 3.87499,1.02344 7.55858,3.49219 10.92186,-0.50391 14.69922,2.20313 28.86328,-0.58985 41.49611,-1.24219 3.1719,4.58594 6.8594,-1.92187 11.3125,-0.42969 15.2304,0.27345 28.75,3.71876 42.6875,-0.0625 4.9023,6.73827 11.5586,0.16015 17.043,-1.54297 2.8164,1.60546 4.7265,5.41796 2.1054,8.16796 z m 0,0"
       id="path3656" />
    <path
       style="fill:#211e1e;fill-opacity:1;fill-rule:nonzero;stroke:none"
       d="m 1080.6016,993.04028 c 5.3086,-3.75 9.289,2.62109 14.6289,2.48437 10.5508,3.11721 18.1484,0.31641 27.1406,5.91805 2.7891,-1.3594 6.5508,-2.66024 8.8281,0.9804 10.6016,6.3203 22.3203,4.9297 32.0508,12.9375 4.3906,-0.8672 5.0898,5.1524 9.8008,4.293 3.5508,7.3398 13.168,3.7578 17.0898,10.4297 2.6211,0.2812 5.7891,-1.3711 7.8477,0.8516 -10.3086,0.25 -21.336,1.6875 -30.8164,-2.6211 -4.043,3.8789 -7.0821,-1.7383 -10.6797,-2.4493 -12.0742,-1.2304 -19.582,-5.4023 -30.0313,-9.8203 -8.1406,-4.4687 -19.1601,2.5977 -24.7812,-6.5703 -10.4492,1.8594 -18.5313,-6.2695 -29.7188,-3.8203 -2.2226,-3.9102 -5.4023,-1.9297 -8.4101,-1.5195 -13.4297,-4.42974 -27.0586,-0.5586 -40.75,-5.96884 -7.5899,-0.1133 -14.5586,3.35944 -20.4297,-0.5508 l -1.7695,1.1368 c -15.66801,-2.35551 -33.17191,0.7929 -47.53129,-1.0665 -2.30859,6.03914 -6.53125,-3.9687 -9.83594,2.2579 -4.96093,-2.8594 -10.94921,3.46874 -15.71093,-1.6485 -4.11719,1.5274 -9.49219,5.28134 -13.66407,0.9102 -15.30078,3.98834 -33.24609,1.39844 -46.82812,7.91794 -4.33594,-5.7382 -8.78516,1.6915 -13.63281,0.8711 -10.45313,-1.3984 -20.67969,1.0899 -30.08203,-0.2109 3.18359,-1.9297 7.84375,-2.1914 11.25,-0.1406 8.42968,-7.67974 19.22656,2.7109 27.42578,-6 4.08984,-0.8789 6.46093,-1.67974 10.21484,0.3906 15.00781,-4.02734 31.26563,-4.66024 46.26172,-8.67972 l 0.0586,-0.64844 c 8.46485,4.21872 18.25782,-0.68359 27.23047,-1.05078 2.71485,-0.70703 7.34766,-0.91797 11.08985,-1.53516 5.77734,1.63672 12.8164,0.75391 17.84375,-2.70703 12.6875,5.00391 23.92578,-4.38672 36.64838,0.58594 7.25,0.0977 15.5508,-3.28906 22.1719,0.0312 3.9766,-3.54297 8.3672,-1.09766 11.9297,-0.375 9.9297,3.02734 24.8711,2.60156 35.1602,5.38672"
       id="path3658" />
    <path
       style="fill:none;stroke:#211e1e;stroke-width:1.0000006;stroke-linecap:butt;stroke-linejoin:miter;stroke-miterlimit:4;stroke-opacity:1"
       d="m 1080.6016,993.04031 c 5.3085,-3.75 9.289,2.6211 14.6289,2.48438 10.5507,3.11719 18.1484,0.3164 27.1406,5.91801 2.7891,-1.3594 6.5508,-2.66019 8.8281,0.9804 10.6016,6.3203 22.3203,4.9297 32.0508,12.9375 4.3906,-0.8672 5.0898,5.1524 9.8008,4.293 3.5508,7.3398 13.1679,3.7578 17.0898,10.4297 2.6211,0.2812 5.7891,-1.3711 7.8477,0.8516 -10.3086,0.2499 -21.336,1.6875 -30.8164,-2.6211 -4.043,3.8789 -7.0821,-1.7383 -10.6797,-2.4493 -12.0742,-1.2304 -19.5821,-5.4023 -30.0313,-9.8203 -8.1406,-4.4687 -19.1601,2.5977 -24.7812,-6.5703 -10.4492,1.8594 -18.5313,-6.2695 -29.7188,-3.8203 -2.2226,-3.9102 -5.4023,-1.9297 -8.4101,-1.5195 -13.4297,-4.42971 -27.0586,-0.5586 -40.75,-5.96878 -7.5899,-0.11328 -14.5586,3.35938 -20.4297,-0.55078 l -1.7695,1.13672 c -15.66801,-2.35547 -33.17191,0.79296 -47.53128,-1.06641 -2.30861,6.03905 -6.53126,-3.96874 -9.83595,2.25781 -4.96093,-2.85937 -10.94922,3.46874 -15.71094,-1.64844 -4.11719,1.52735 -9.49218,5.28128 -13.66406,0.91016 -15.30078,3.98832 -33.24608,1.39842 -46.82811,7.91802 -4.33595,-5.7383 -8.78517,1.6914 -13.63283,0.871 -10.45312,-1.3984 -20.67967,1.0899 -30.08202,-0.2109 3.18359,-1.9297 7.84375,-2.1914 11.25,-0.1406 8.42969,-7.6797 19.22655,2.7109 27.42578,-6 4.08984,-0.8789 6.46093,-1.6797 10.21485,0.3906 15.0078,-4.02733 31.26562,-4.66016 46.26172,-8.67969 l 0.0586,-0.64842 c 8.46484,4.21875 18.2578,-0.6836 27.23047,-1.05079 2.71484,-0.70704 7.34765,-0.91796 11.08983,-1.53515 5.77736,1.63671 12.81641,0.7539 17.84376,-2.70704 12.68749,5.00391 23.92578,-4.38672 36.64838,0.58593 7.25,0.0977 15.5508,-3.28905 22.1719,0.0313 3.9766,-3.54297 8.3672,-1.09765 11.9297,-0.375 9.9297,3.02735 24.8711,2.60156 35.1602,5.38671 z m 0,0"
       id="path3660" />
    <path
       style="fill:#0f0c0c;fill-opacity:1;fill-rule:nonzero;stroke:none"
       d="m 819.84375,1009.0559 c -1.73047,1.1563 -7.55469,-0.4609 -10.52734,2.9063 -8.08594,-2.207 -14.97266,6.9805 -22.26563,0.9023 -2.23828,2.0782 -5.40625,0.75 -8.05469,0.7774 L 778.5,1012.6614 c 4.06641,-4.5664 13.01172,1.3633 17.35156,-2.168 8.76172,1.918 16.76563,-4.8711 23.99219,-1.4375"
       id="path3662" />
    <path
       style="fill:none;stroke:#211e1e;stroke-width:1.0000006;stroke-linecap:butt;stroke-linejoin:miter;stroke-miterlimit:4;stroke-opacity:1"
       d="m 819.84374,1009.0559 c -1.73045,1.1563 -7.55468,-0.4609 -10.52733,2.9063 -8.08595,-2.207 -14.97267,6.9805 -22.26563,0.9023 -2.23829,2.0782 -5.40625,0.75 -8.05469,0.7774 l -0.4961,-0.9805 c 4.06642,-4.5664 13.01173,1.3633 17.35157,-2.168 8.76172,1.918 16.76562,-4.871 23.99218,-1.4375 z m 0,0"
       id="path3664" />
    <path
       style="fill:#211e1e;fill-opacity:1;fill-rule:nonzero;stroke:none"
       d="m 1713.3516,1128.513 c -0.035,3.6015 -4.0508,3.8711 -6.1953,5.6211 -7.3633,0.5468 -11.9219,0.047 -19.254,0.3281 -10.9531,3.4297 -25.8437,0.5 -37.1835,7.3203 -9.7696,-1.4101 -19.836,3.4492 -28.5469,7.2109 l -0.211,2.2579 c -7.6015,-6.7383 -17.8086,-0.5782 -28.4921,-3.0079 l -17.0782,-1.121 c -5.6406,-2.9493 -13.1914,-0.07 -20.6211,-2.211 -9.3867,-1.6601 -18.3906,-4.2383 -27.6484,-1.2969 -5.832,-4.2109 -13.6602,-5.082 -20.25,-2.1093 l -0.8125,7.1992 c -2.0781,1.418 -3.707,-2.0703 -6.0273,-2.2617 1.0781,-16.4375 -18.7813,-6.668 -26.4024,-13.1211 -7.668,0.8593 -18.2578,-2.2696 -27,-1.1797 -5.3984,4.0117 -11.8281,-3.918 -16.6758,1.1797 -31.2422,1.3437 -64.8633,3.3828 -96.6015,3.3828 -7.711,-5.5 -18.5821,0.3476 -27.5,-2.9414 -8.9414,-6.2305 -21.9414,-1.9883 -29.9414,-7.8203 -9.8907,2.9531 -18.5313,-5.8672 -28.1485,-5.6407 -6.3828,3.9727 -11.7187,-5.1367 -18.0429,-1.8593 -13.1915,-3.3789 -24.9493,1.2695 -39.6211,-0.2578 -2.8985,5.0195 -6.4688,-1.6641 -9.8477,2.2578 -8.8984,-0.6094 -13.6914,4.1914 -23.0703,2.1914 -3.457,4.6601 -7.5078,-0.7813 -10.6602,3.832 -4.4882,-1.8125 -9.6797,0.6484 -13.8281,2.4883 -6.7422,0.9492 -14.2226,2.8203 -20.2305,3.5078 -8.6211,3.3203 -19.082,5.2422 -29.4101,6.1719 -4.9688,6.039 -15.4297,-1.3203 -21.5508,3.2968 -15.25,0.1133 -27.918,1.004 -42.2813,-0.5 -1.789,-4.8203 -6.289,3.2813 -7.6171,-3.0781 -5.8204,1.6406 -9.9727,0.5 -14.57035,-3.2383 -8.18359,-0.1718 -14.25,-2.5117 -22.70313,-4.0625 -6.98828,-2.6601 -17.42968,-4.4804 -25.11328,-3.3203 l -12.89062,-3.6562 c 3.40625,-0.6211 8.32422,-0.1211 9.13281,-4.6719 2.82813,4.2891 7.35547,-0.5312 10.94141,2.8789 8.28125,6.1094 17.32812,1.7617 25.4375,6.6133 8.39843,-4.082 12.46093,7.2383 20.30466,2.1484 2.9297,3.2696 6.7188,1.6797 9.9883,2.6875 21.1094,3.2617 41.4531,4.7305 62.8203,0.07 4.211,-2.5586 9.961,-0.5781 15.3516,-1.3789 9.8984,-2.8984 20.5976,-4.0781 30.0195,-8.6718 6.4688,-1.6758 13.6016,-0.2579 19.0703,-5.3086 7.8282,-1.8203 17.1289,-1.8203 23.6407,-7.0782 14.2695,-0.8593 27.8007,-3.6914 42.25,-2.4687 l 7.8281,-5.4414 c 3.2422,1 -0.8672,5.5195 3.4414,5 l 4.7109,-6.7813 c -0.4336,7.2227 7.1094,1.7188 9.4375,7.5899 1.6094,-2.7891 5.0703,-0.75 7.3985,-0.8594 4.6015,6.418 13.6211,-0.8789 18.2031,5.8281 6.0508,2.3008 6.8789,-5.4297 12.3515,-4.2773 -3.4609,4.9375 3.7657,8.3672 8.0782,8.7773 l 25.8672,2.1133 c 3.1015,4.9766 7.3515,-3.8633 11.0546,1.8594 15.0782,1.25 28.0079,3.9297 42.4375,2.1875 2.4102,-1.0781 2.3321,-3.4375 4.4493,-4.5274 8.8398,7.211 20.1289,0.4805 29.6601,4.168 8.8828,-2.6797 20.1797,3.0899 28.8828,-0.9492 7.6875,2.5078 16.8789,0.1484 24.3907,0.9687 12.1093,1.3008 28.1171,-0.3671 39.2382,4.1524 5.5704,-2.4414 13.0899,1.3672 17.9493,-3.7695 3.789,8.0195 9.3789,-4.2813 13.1914,3.6601 6.9375,-0.2422 17.0586,1.2383 23.8593,-0.3437 3.9883,0 8.0196,2.164 12.0313,-1.1368 l 1.6289,-3.082 c 0.6875,6.0313 7.1602,4.0703 10.9297,2.8203 16.5703,3.1094 30.6914,-2.0586 46.1406,-1.3906 10,2.6719 18.6602,-4.2891 29.0586,-2.5469 1.1602,-4.5 6.6094,-2.9726 8.7109,-0.7226 14.6875,-1.4414 28.1602,-0.6602 42.1485,-1.1797 8.3242,1.8594 20.1758,-3.8906 23.9922,7.5"
       id="path3666" />
    <path
       style="fill:none;stroke:#211e1e;stroke-width:1.0000006;stroke-linecap:butt;stroke-linejoin:miter;stroke-miterlimit:4;stroke-opacity:1"
       d="m 1713.3515,1128.513 c -0.035,3.6015 -4.0507,3.8711 -6.1952,5.6211 -7.3633,0.5468 -11.9219,0.047 -19.254,0.3281 -10.9531,3.4297 -25.8437,0.5 -37.1836,7.3203 -9.7695,-1.4102 -19.8359,3.4492 -28.5468,7.2109 l -0.211,2.2579 c -7.6015,-6.7383 -17.8086,-0.5782 -28.4921,-3.0078 l -17.0782,-1.1211 c -5.6406,-2.9493 -13.1914,-0.07 -20.6211,-2.211 -9.3867,-1.6601 -18.3906,-4.2383 -27.6484,-1.2969 -5.832,-4.2109 -13.6602,-5.082 -20.25,-2.1093 l -0.8125,7.1992 c -2.0781,1.418 -3.707,-2.0703 -6.0274,-2.2617 1.0782,-16.4375 -18.7812,-6.668 -26.4023,-13.1211 -7.668,0.8593 -18.2578,-2.2696 -27,-1.1797 -5.3984,4.0117 -11.8281,-3.918 -16.6758,1.1797 -31.2422,1.3437 -64.8632,3.3828 -96.6015,3.3828 -7.711,-5.5 -18.5821,0.3476 -27.5,-2.9414 -8.9414,-6.2305 -21.9415,-1.9883 -29.9414,-7.8203 -9.8907,2.9531 -18.5313,-5.8672 -28.1485,-5.6407 -6.3828,3.9727 -11.7187,-5.1367 -18.0429,-1.8593 -13.1914,-3.3789 -24.9493,1.2695 -39.6211,-0.2579 -2.8985,5.0196 -6.4688,-1.664 -9.8477,2.2579 -8.8984,-0.6094 -13.6914,4.1914 -23.0703,2.1914 -3.4571,4.6601 -7.5078,-0.7813 -10.6602,3.832 -4.4883,-1.8125 -9.6797,0.6484 -13.8281,2.4883 -6.7422,0.9492 -14.2226,2.8203 -20.2305,3.5078 -8.621,3.3203 -19.082,5.2422 -29.4101,6.1719 -4.9688,6.039 -15.4297,-1.3203 -21.5508,3.2968 -15.25,0.1133 -27.918,1.004 -42.2812,-0.5 -1.7891,-4.8203 -6.2891,3.2813 -7.6172,-3.0781 -5.8203,1.6406 -9.9727,0.5 -14.57035,-3.2383 -8.18359,-0.1718 -14.24999,-2.5117 -22.70313,-4.0625 -6.98828,-2.6601 -17.42968,-4.4804 -25.11327,-3.3203 l -12.89064,-3.6562 c 3.40626,-0.6211 8.32423,-0.1211 9.13282,-4.6719 2.82812,4.2891 7.35548,-0.5312 10.9414,2.8789 8.28126,6.1094 17.32813,1.7617 25.43751,6.6133 8.39843,-4.082 12.46093,7.2383 20.30466,2.1484 2.9297,3.2696 6.7188,1.6797 9.9883,2.6875 21.1094,3.2617 41.4531,4.7305 62.8203,0.07 4.2109,-2.5586 9.9609,-0.5781 15.3516,-1.3789 9.8984,-2.8984 20.5976,-4.0781 30.0195,-8.6718 6.4688,-1.6758 13.6016,-0.2579 19.0703,-5.3086 7.8281,-1.8203 17.1289,-1.8203 23.6407,-7.0782 14.2695,-0.8593 27.8007,-3.6914 42.2499,-2.4687 l 7.8282,-5.4414 c 3.2422,1 -0.8672,5.5195 3.4414,5 l 4.7109,-6.7813 c -0.4336,7.2227 7.1094,1.7188 9.4375,7.5899 1.6094,-2.7891 5.0703,-0.75 7.3984,-0.8594 4.6016,6.418 13.6212,-0.8789 18.2032,5.8281 6.0508,2.3008 6.8789,-5.4297 12.3516,-4.2773 -3.461,4.9375 3.7656,8.3672 8.0781,8.7773 l 25.8672,2.1133 c 3.1015,4.9766 7.3515,-3.8633 11.0547,1.8594 15.0781,1.25 28.0077,3.9297 42.4374,2.1875 2.4102,-1.0781 2.3321,-3.4375 4.4493,-4.5274 8.8398,7.211 20.1289,0.4805 29.6601,4.168 8.8828,-2.6797 20.1797,3.0898 28.8828,-0.9492 7.6875,2.5078 16.8789,0.1484 24.3907,0.9687 12.1093,1.3008 28.1171,-0.3671 39.2382,4.1524 5.5704,-2.4414 13.0899,1.3672 17.9493,-3.7696 3.789,8.0196 9.3789,-4.2812 13.1914,3.6602 6.9375,-0.2422 17.0586,1.2383 23.8593,-0.3437 3.9883,0 8.0196,2.164 12.0313,-1.1368 l 1.6289,-3.082 c 0.6875,6.0313 7.1602,4.0703 10.9297,2.8203 16.5703,3.1094 30.6914,-2.0586 46.1406,-1.3906 10,2.6719 18.6602,-4.2891 29.0586,-2.5469 1.1602,-4.5 6.6094,-2.9726 8.7109,-0.7226 14.6875,-1.4414 28.1602,-0.6602 42.1485,-1.1797 8.3242,1.8594 20.1758,-3.8907 23.9921,7.5 z m 0,0"
       id="path3668" />
    <path
       style="fill:#211e1e;fill-opacity:1;fill-rule:nonzero;stroke:none"
       d="m 1644.4297,1185.3958 c 25.0117,1.3476 47.832,4.7695 71.7578,3.5976 19.5859,2.4493 40.0508,6.2891 58.5391,9.5508 -2.211,5.3711 -9.9258,0.5782 -13.8125,5.5586 -5.2852,-3.2695 -7.1055,4.4805 -12.0039,0.9492 -14.0157,10.461 -29.8516,7.0704 -45.5547,8.75 -32.7227,2.5235 -60.4571,-7.4375 -91.9766,-9.6992 -6.6406,-6.039 -14.1289,-0.8711 -22.3164,-4.7304 -15.2734,3.7421 -33.9727,2.0625 -49.9922,6.6015 -3.039,-2.6211 -6.3086,-0.012 -8.7617,1.4492 -9.6992,0.961 -17.6172,1.1094 -27.0977,-0.5586 -9.1601,2.3282 -19.6211,1.2383 -28.8086,3.5586 -19.6914,-1.1211 -40.2617,-0.9882 -61.2421,0.4805 l -1.4414,-1.8828 c -12.4883,2.0625 -24.8985,-2.2461 -35.9805,1.832 -17.0469,-1.0976 -32.168,-2.0703 -49.957,0.4297 -8.6211,-2.957 -15.0508,1.6602 -23.7227,-0.9297 -5.7383,7.3399 -13.1484,-0.7109 -19.6289,4.2031 -2.582,-3.5937 -5.6797,0.3477 -8.4688,-1.5351 -6.4101,1.2851 -13.8593,0.1836 -18.6211,4.2812 -5.3906,-5.1796 -12.6015,-3.3203 -17.3789,-1.1601 -6.6211,-3.3789 -18.1796,-3.9492 -25.4414,-0.3672 -3.8086,-5.043 -11.7304,-2.2109 -15.7187,-1.6523 -4.6328,-6.4688 -15.1992,-0.3204 -21.8906,-2.3594 -3.1211,1 -4.8594,-4.1094 -7.3516,0.2617 -14.0391,-7.7227 -28.6797,-4.0625 -43.9766,-9.6211 -22.2226,-5.3906 -46.2031,2.3711 -69.4726,3.2305 -4.2305,2.5 -9.961,0.5586 -13.9688,3.75 -5.3086,0.1601 -10.8593,-0.4297 -15.4804,2.3476 -7.1719,-1.0664 -14.5,2.7305 -22.4375,2.5742 -3.32817,3.9063 -8.93754,0.418 -12.35551,4.3477 -24.55078,-2.3281 -53.13672,-7.3125 -79,-3.75 -1.21485,8.4883 -7.82032,-1.1484 -11.30078,3.4609 l -9.03907,-4.9804 c -4.48047,-1.1016 -7.09375,7.5508 -11.54687,2.7578 -5.67969,-8.9102 -11.6836,7.3906 -18.17969,-0.2383 -9.92969,-6.0391 -22.85937,-2.793 -34.59375,-4.3203 -8.48437,2.0781 -16.03906,-1.7188 -24.14062,3.0508 -12.48047,-6.9805 -21.97657,1.0312 -35.47657,-2.4414 l -3.32812,3.582 c -4.24219,-7.3906 -9.92188,2.6484 -15.08594,-1.5625 -3.32031,3.2734 -5.55469,-0.5898 -8.87891,2.3828 -1.55859,2.1172 -0.99218,6.4961 -4.68359,6.7969 -3.05078,-2.0391 -4.57812,-3.4688 -5.48437,-7.1875 -5.55469,5.3476 -13.36329,4.1875 -19.09766,5.25 -1.88281,-4.2031 -5.76953,-1.9805 -8.58984,-0.2695 -0.78907,1.5585 -2.02735,0.4101 -3.375,0.5976 2.73437,-0.7109 1.72265,-3.5 2.21875,-5.3281 4.20703,-1.9922 9.54687,-8.9531 13.1875,-2.5899 2.29296,0.2579 5.73437,-1.0117 5.00781,2.8282 0.5664,0.7422 0.88672,1.0625 1.52734,1.1718 3.1211,-1.332 1.52344,-4.7812 2.38281,-7.0117 3.01172,-0.3476 6.66797,2.711 8.78125,-1.4179 5.14844,3.8281 10.4375,-1.8321 15.14063,0.6289 5.03906,-7.1211 15.41016,-2.0391 22.61328,-4.5704 15.87109,0.379 27.88672,-9.9296 44.19922,-4.8984 2.39453,-3.75 4.80859,1.8203 7.38281,-0.9297 5.1836,0.9297 9.16016,-2.3125 13.91797,-3.1719 L 832,1194.0052 c 1.58984,-2.211 5.85156,-1.7735 4.53906,-5.1719 l 3.94141,0.3906 -1.10156,3.8789 c 6.63671,6.2696 13.20312,0.3789 21.05078,4.5196 5.89843,-5.9571 14.79687,-2.3711 20.51953,-0.129 4.6875,-6.7695 9.01562,5.3125 13.1875,-2.539 9.8164,4.0195 18.9375,-4 28.96094,1.3711 3.48828,-1.5938 10.375,1.7578 14.61718,-0.7617 7.75,-1.1993 17.98047,5.2695 21.70703,-4.9805 7.82422,13.8281 20.16797,0.1406 30.42579,6.5312 6.10546,-1.6523 11.22264,0.2188 16.88284,-3.1523 13.5625,2.7109 24.7109,-2.3906 38.3398,0.082 14.711,1.8594 31.457,-3.3203 46.4375,1.9492 5.6445,-6.3125 10.2227,4.0508 15.9727,-0.6796 9.9218,-0.2305 18.7304,4.3203 28.3984,3.039 12.8711,7.043 28.9492,1.7813 43.543,7.6211 7.0664,2.3516 16.3867,-1.5625 21.957,2.3008 l 1.8008,-1.4102 45.6992,2.5196 c 6.7813,-4.5703 14.6406,2.5195 21.2109,-3.4102 13.4219,4.3789 27.711,-2.0195 42.1094,-0.8203 6.0508,-0.6992 13.8906,-3.1484 20.6016,-1.1992 1.918,-2.082 3.9375,-2.1836 5.6797,-0.039 10.8008,-2.082 23.4687,3.1992 32.3984,-6.1406 2.6211,6.5703 12.2813,2.3008 18.4922,3.6172 3.9687,-3.5078 11.668,2.5625 13.9414,-3.5078 7.5078,7.1289 16.4883,-3.1914 26.0391,0.4492 l 2.8789,-1.9922 c 10.0898,1.7227 18.1484,-6.0391 28,-1.9766 8.5781,-3.0703 19.1406,-2.9414 28.1484,-3.332 10.2813,-0.4883 23.1016,-2.5312 31.832,-10.1797 4.9375,3.4922 11.3907,-1.1484 15.5274,3.2813 20.0742,-1.8203 39.4336,-6.4024 58.9023,-9.5899 16.4102,4.3477 34.9883,4.2891 49.7891,10.8516"
       id="path3670" />
    <path
       style="fill:none;stroke:#211e1e;stroke-width:1.0000006;stroke-linecap:butt;stroke-linejoin:miter;stroke-miterlimit:4;stroke-opacity:1"
       d="m 1644.4297,1185.3958 c 25.0117,1.3476 47.832,4.7695 71.7578,3.5976 19.586,2.4493 40.0509,6.2891 58.539,9.5508 -2.2109,5.3711 -9.9257,0.5782 -13.8124,5.5586 -5.2853,-3.2695 -7.1055,4.4805 -12.0039,0.9492 -14.0157,10.461 -29.8517,7.0703 -45.5547,8.75 -32.7227,2.5235 -60.4571,-7.4375 -91.9766,-9.6992 -6.6406,-6.039 -14.1289,-0.8711 -22.3164,-4.7305 -15.2734,3.7422 -33.9727,2.0625 -49.9922,6.6016 -3.0391,-2.6211 -6.3086,-0.012 -8.7617,1.4492 -9.6992,0.961 -17.6172,1.1094 -27.0977,-0.5586 -9.1601,2.3282 -19.6211,1.2383 -28.8086,3.5586 -19.6914,-1.1211 -40.2617,-0.9883 -61.2422,0.4805 l -1.4414,-1.8828 c -12.4882,2.0625 -24.8984,-2.2461 -35.9804,1.832 -17.0469,-1.0976 -32.168,-2.0703 -49.957,0.4297 -8.6212,-2.957 -15.0508,1.6602 -23.7227,-0.9297 -5.7383,7.3399 -13.1484,-0.7109 -19.6289,4.2031 -2.582,-3.5937 -5.6797,0.3477 -8.4688,-1.5351 -6.4101,1.2851 -13.8593,0.1836 -18.6211,4.2812 -5.3906,-5.1797 -12.6015,-3.3203 -17.3789,-1.1601 -6.6211,-3.3789 -18.1796,-3.9492 -25.4414,-0.3672 -3.8086,-5.043 -11.7304,-2.2109 -15.7187,-1.6523 -4.6328,-6.4688 -15.1992,-0.3204 -21.8906,-2.3594 -3.1211,1 -4.8594,-4.1094 -7.3516,0.2617 -14.0391,-7.7227 -28.6797,-4.0625 -43.9766,-9.6211 -22.2226,-5.3906 -46.2031,2.3711 -69.4726,3.2305 -4.2305,2.5 -9.961,0.5586 -13.9688,3.75 -5.3086,0.1601 -10.8594,-0.4297 -15.4805,2.3476 -7.1718,-1.0664 -14.4999,2.7305 -22.4375,2.5742 -3.32806,3.9063 -8.93745,0.418 -12.3554,4.3477 -24.55079,-2.3281 -53.13672,-7.3125 -79.00002,-3.75 -1.21484,8.4883 -7.82031,-1.1484 -11.30077,3.4609 l -9.03906,-4.9804 c -4.48047,-1.1016 -7.09376,7.5507 -11.54687,2.7578 -5.6797,-8.9102 -11.68361,7.3906 -18.1797,-0.2383 -9.92968,-6.0391 -22.85937,-2.793 -34.59375,-4.3203 -8.48437,2.0781 -16.03905,-1.7188 -24.14062,3.0508 -12.48046,-6.9805 -21.97656,1.0312 -35.47657,-2.4414 l -3.32813,3.582 c -4.24218,-7.3906 -9.92186,2.6484 -15.08592,-1.5625 -3.32031,3.2734 -5.5547,-0.5899 -8.87891,2.3828 -1.5586,2.1172 -0.9922,6.4961 -4.68361,6.7969 -3.05077,-2.0391 -4.57811,-3.4688 -5.48436,-7.1875 -5.5547,5.3476 -13.36329,4.1875 -19.09766,5.25 -1.88281,-4.2031 -5.76953,-1.9805 -8.58984,-0.2695 -0.78907,1.5585 -2.02735,0.4101 -3.375,0.5976 2.73438,-0.7109 1.72266,-3.5 2.21875,-5.3281 4.20703,-1.9922 9.54687,-8.9531 13.1875,-2.5899 2.29296,0.2579 5.73437,-1.0117 5.00781,2.8282 0.5664,0.7421 0.88673,1.0625 1.52733,1.1718 3.12111,-1.332 1.52345,-4.7812 2.38282,-7.0117 3.01173,-0.3476 6.66798,2.711 8.78126,-1.418 5.14843,3.8282 10.43749,-1.832 15.14062,0.629 5.03907,-7.1211 15.41015,-2.0391 22.61329,-4.5704 15.87109,0.379 27.88671,-9.9296 44.1992,-4.8984 2.39454,-3.75 4.80861,1.8203 7.38282,-0.9297 5.1836,0.9297 9.16015,-2.3125 13.91797,-3.1719 l -2.42577,-2.4882 c 1.58983,-2.211 5.85156,-1.7735 4.53905,-5.1719 l 3.9414,0.3906 -1.10156,3.8789 c 6.63672,6.2695 13.20314,0.3789 21.05079,4.5196 5.89843,-5.9571 14.79687,-2.3711 20.51954,-0.129 4.68749,-6.7695 9.01562,5.3125 13.18748,-2.539 9.81642,4.0195 18.9375,-4 28.96095,1.3711 3.48828,-1.5938 10.375,1.7578 14.61718,-0.7617 7.75001,-1.1993 17.98048,5.2695 21.70704,-4.9805 7.82421,13.8281 20.16796,0.1406 30.42578,6.5312 6.10546,-1.6523 11.22264,0.2188 16.88284,-3.1523 13.5625,2.7109 24.7109,-2.3906 38.3398,0.082 14.7109,1.8594 31.4571,-3.3203 46.4375,1.9492 5.6445,-6.3125 10.2227,4.0508 15.9727,-0.6796 9.9218,-0.2305 18.7304,4.3203 28.3984,3.039 12.8711,7.043 28.9492,1.7813 43.543,7.6211 7.0664,2.3516 16.3867,-1.5625 21.957,2.3008 l 1.8008,-1.4102 45.6992,2.5196 c 6.7813,-4.5703 14.6406,2.5195 21.2109,-3.4102 13.4219,4.3789 27.711,-2.0195 42.1094,-0.8203 6.0508,-0.6992 13.8906,-3.1484 20.6016,-1.1992 1.918,-2.0821 3.9375,-2.1836 5.6797,-0.039 10.8008,-2.082 23.4687,3.1992 32.3984,-6.1406 2.6211,6.5703 12.2812,2.3008 18.4922,3.6172 3.9687,-3.5078 11.668,2.5625 13.9414,-3.5078 7.5078,7.1289 16.4883,-3.1914 26.0391,0.4492 l 2.8789,-1.9922 c 10.0898,1.7227 18.1484,-6.0391 28,-1.9766 8.5781,-3.0703 19.1406,-2.9414 28.1484,-3.332 10.2812,-0.4883 23.1016,-2.5312 31.832,-10.1797 4.9375,3.4922 11.3907,-1.1484 15.5274,3.2813 20.0742,-1.8203 39.4336,-6.4024 58.9023,-9.5899 16.4102,4.3477 34.9883,4.2891 49.7891,10.8516 z m 0,0"
       id="path3672" />
    <path
       style="fill:#bd4f21;fill-opacity:1;fill-rule:nonzero;stroke:none"
       d="m 583.85937,912.80981 8.6836,16.79297 11.98047,13.77344 7.72656,17.11718 6.32031,17.19532 3.06641,16.88281 1.77734,17.67187 5.94141,17.6211 1.15234,14.4883 0.96875,20.5821 1.96875,19.3671 1.35938,18.2618 -6.08203,19.5273 1.28906,18.4414 -4.34766,16.6797 0.47656,17.0703 -4.17968,15.9219 -10.53516,12.7187 -3.01562,18.2305 -10.13672,14.4688 -8.76172,13.4804 -4.17969,11.5117 -10.30078,-13.7109 -10.10938,-15.0391 -10.72265,-14.1406 -7.40235,-15.5508 -6.83203,-16.8906 -3.30468,-16.6094 -4.87891,-16.5586 -3.07422,-17.4726 -4.73437,-17.7305 2.55468,-16.3906 -0.41015,-13.8477 -1.63672,-19.5898 -0.0742,-19.7695 3.97656,-19.3399 3.44922,-19.5781 9.35547,-13.7813 7.15234,-14.24219 0.90625,-17.08984 8.67969,-13.67969 10.01172,-12.53125 5.96484,-14.3086 9.95703,-9.95312"
       id="path3674" />
    <path
       style="fill:#bd4f21;fill-opacity:1;fill-rule:nonzero;stroke:none"
       d="m 581.53516,977.86059 c 0,0 25.93359,51.01181 25.0625,106.19141 -0.81641,55.1641 -23.38672,121.211 -23.38672,121.211 0,0 -32.60547,-61.0313 -31.77735,-109.5196 0.83203,-48.5117 30.10157,-117.88281 30.10157,-117.88281"
       id="path3676" />
    <path
       style="fill:none;stroke:#211e1e;stroke-width:3.00000691;stroke-linecap:butt;stroke-linejoin:miter;stroke-miterlimit:4;stroke-opacity:1"
       d="m 581.53515,977.86064 c 0,0 25.93361,51.01176 25.0625,106.19136 -0.8164,55.1641 -23.38671,121.211 -23.38671,121.211 0,0 -32.60546,-61.0313 -31.77735,-109.5196 0.83203,-48.5117 30.10156,-117.88276 30.10156,-117.88276 z m 0,0"
       id="path3678" />
    <path
       style="fill:#211e1e;fill-opacity:1;fill-rule:nonzero;stroke:none"
       d="m 1411.0508,594.552 c 0,0 -23.9883,-30.75782 -21.5899,-37.33985 2.3985,-6.58984 -9.6015,-28.55078 16.7813,-65.89062 26.3867,-37.33985 21.5976,-19.76563 24,-15.3711 2.3867,4.39063 14.3867,30.75391 9.5898,43.92188 -4.8007,13.17578 4.7969,28.55469 -4.8007,48.32031 -9.5899,19.76953 -23.9805,26.35938 -23.9805,26.35938"
       id="path3680" />
    <path
       style="fill:none;stroke:#211e1e;stroke-width:1.0000006;stroke-linecap:butt;stroke-linejoin:miter;stroke-miterlimit:4;stroke-opacity:1"
       d="m 1411.0508,594.55204 c 0,0 -23.9883,-30.75781 -21.5899,-37.33984 2.3985,-6.58985 -9.6015,-28.5508 16.7813,-65.89064 26.3867,-37.33984 21.5976,-19.76561 24,-15.37109 2.3867,4.39062 14.3867,30.75391 9.5898,43.92187 -4.8008,13.17579 4.7969,28.5547 -4.8008,48.32032 -9.5898,19.76953 -23.9804,26.35938 -23.9804,26.35938 z m 0,0"
       id="path3682" />
    <path
       style="fill:#211e1e;fill-opacity:1;fill-rule:nonzero;stroke:none"
       d="m 1246.6406,757.09106 c -17.582,-13.17969 -39.539,-35.14453 -65.8906,-35.14453 -26.3711,0 -52.7187,15.3789 -52.7187,15.3789 0,0 21.957,26.35157 37.3398,30.7461 15.3789,4.39062 48.3281,13.17578 59.2969,8.78906 10.9922,-4.39844 21.9726,-19.76953 21.9726,-19.76953"
       id="path3684" />
    <path
       style="fill:none;stroke:#211e1e;stroke-width:1.0000006;stroke-linecap:butt;stroke-linejoin:miter;stroke-miterlimit:4;stroke-opacity:1"
       d="m 1246.6406,757.0911 c -17.582,-13.17968 -39.539,-35.14453 -65.8906,-35.14453 -26.3711,0 -52.7188,15.3789 -52.7188,15.3789 0,0 21.9571,26.35157 37.3399,30.7461 15.3789,4.39063 48.3281,13.17579 59.2969,8.78907 10.9922,-4.39844 21.9726,-19.76954 21.9726,-19.76954 z m 0,0"
       id="path3686" />
  </g>
</svg>
